<?xml version="1.0" encoding="UTF-8" standalone="no"?>
<!-- Created with Inkscape (http://www.inkscape.org/) -->

<svg
   xmlns:dc="http://purl.org/dc/elements/1.1/"
   xmlns:cc="http://creativecommons.org/ns#"
   xmlns:rdf="http://www.w3.org/1999/02/22-rdf-syntax-ns#"
   xmlns:svg="http://www.w3.org/2000/svg"
   xmlns="http://www.w3.org/2000/svg"
   xmlns:sodipodi="http://sodipodi.sourceforge.net/DTD/sodipodi-0.dtd"
   xmlns:inkscape="http://www.inkscape.org/namespaces/inkscape"
   width="210mm"
   height="297mm"
   viewBox="0 0 210 297"
   version="1.1"
   id="svg8"
   inkscape:version="0.92.3 (2405546, 2018-03-11)"
   sodipodi:docname="whatsapplogo.svg">
  <defs
     id="defs2" />
  <sodipodi:namedview
     id="base"
     pagecolor="#ffffff"
     bordercolor="#666666"
     borderopacity="1.0"
     inkscape:pageopacity="0.0"
     inkscape:pageshadow="2"
     inkscape:zoom="0.35355339"
     inkscape:cx="594.12124"
     inkscape:cy="738.37349"
     inkscape:document-units="mm"
     inkscape:current-layer="layer1"
     showgrid="false"
     inkscape:window-width="670"
     inkscape:window-height="689"
     inkscape:window-x="0"
     inkscape:window-y="0"
     inkscape:window-maximized="0" />
  <metadata
     id="metadata5">
    <rdf:RDF>
      <cc:Work
         rdf:about="">
        <dc:format>image/svg+xml</dc:format>
        <dc:type
           rdf:resource="http://purl.org/dc/dcmitype/StillImage" />
        <dc:title></dc:title>
      </cc:Work>
    </rdf:RDF>
  </metadata>
  <g
     inkscape:label="Layer 1"
     inkscape:groupmode="layer"
     id="layer1">
    <path
       style="opacity:0.47720008;fill:#4d4d4d;stroke-width:0.23760191"
       d="m 148.09965,100.24578 a 56.559162,56.415604 0 0 0 -40.57338,-17.110571 56.559162,56.415604 0 0 0 -56.558601,56.415871 56.559162,56.415604 0 0 0 8.352062,29.41364 l -7.320148,27.11083 28.749378,-6.85214 a 56.559162,56.415604 0 0 0 26.777329,6.74364 56.559162,56.415604 0 0 0 56.5596,-56.41597 56.559162,56.415604 0 0 0 -15.98622,-39.3053 z"
       id="path4617-2-7-5"
       inkscape:connector-curvature="0"
       inkscape:export-xdpi="96"
       inkscape:export-ydpi="96" />
    <path
       style="opacity:1;fill:#000000;fill-opacity:0;stroke-width:0.93263566"
       d="m 99.788273,194.94455 c -3.523829,-0.44675 -8.979719,-1.89857 -12.124191,-3.22626 -3.144482,-1.32769 -6.500114,-2.39572 -7.456978,-2.37341 -0.956854,0.0223 -7.361328,1.38774 -14.232119,3.03428 -6.870791,1.64654 -12.664898,2.82119 -12.875768,2.61032 -0.210847,-0.21086 1.052474,-5.62425 2.807395,-12.02976 1.754951,-6.4055 3.190812,-12.32608 3.190812,-13.15685 0,-0.83075 -1.208244,-4.19156 -2.684955,-7.46847 -3.477722,-7.71723 -4.776103,-14.06662 -4.776103,-23.3563 0,-9.27957 1.929338,-17.01496 6.344094,-25.43565 6.678391,-12.73831 17.685098,-22.056322 31.85256,-26.965645 6.730451,-2.332252 9.417576,-2.765237 17.29488,-2.786801 15.99789,-0.04379 28.88871,5.286039 40.10334,16.581106 7.57907,7.63348 11.87887,15.15214 14.47877,25.31768 9.83395,38.45067 -22.21037,74.29036 -61.921737,69.25576 z m 16.305527,-8.25619 c 13.46978,-2.49764 26.87998,-12.83693 32.87676,-25.34806 10.79177,-22.51488 3.8309,-47.41105 -17.18093,-61.448977 -8.94149,-5.973764 -24.85321,-8.494362 -35.387019,-5.605716 -12.973565,3.557706 -23.958092,12.636713 -29.850889,24.672553 -6.877721,14.04751 -6.978771,27.51376 -0.31351,41.77554 l 3.344002,7.15523 -2.035008,6.69986 c -1.119254,3.68493 -1.835141,6.89972 -1.590871,7.144 0.244257,0.24427 3.409659,-0.3951 7.034221,-1.42084 l 6.590121,-1.86496 6.415824,3.29177 c 10.51165,5.39324 19.623509,6.89171 30.097299,4.9496 z"
       id="path4770-3"
       inkscape:connector-curvature="0"
       inkscape:export-xdpi="96"
       inkscape:export-ydpi="96" />
    <path
       style="opacity:1;fill:#000000;fill-opacity:0;stroke-width:0.93263566"
       d="m 99.788273,194.94455 c -3.523829,-0.44675 -8.979719,-1.89857 -12.124191,-3.22626 -3.144482,-1.32769 -6.500114,-2.39572 -7.456978,-2.37341 -0.956854,0.0223 -7.361328,1.38774 -14.232119,3.03428 -6.870791,1.64654 -12.664898,2.82119 -12.875768,2.61032 -0.210847,-0.21086 1.052474,-5.62425 2.807395,-12.02976 1.754951,-6.4055 3.190812,-12.32608 3.190812,-13.15685 0,-0.83075 -1.208244,-4.19156 -2.684955,-7.46847 -3.477722,-7.71723 -4.776103,-14.06662 -4.776103,-23.3563 0,-9.27957 1.929338,-17.01496 6.344094,-25.43565 6.678391,-12.73831 17.685098,-22.056322 31.85256,-26.965645 6.730451,-2.332252 9.417576,-2.765237 17.29488,-2.786801 15.99789,-0.04379 28.88871,5.286039 40.10334,16.581106 7.57907,7.63348 11.87887,15.15214 14.47877,25.31768 9.83395,38.45067 -22.21037,74.29036 -61.921737,69.25576 z m 16.305527,-8.25619 c 13.46978,-2.49764 26.87998,-12.83693 32.87676,-25.34806 10.79177,-22.51488 3.8309,-47.41105 -17.18093,-61.448977 -8.94149,-5.973764 -24.85321,-8.494362 -35.387019,-5.605716 -12.973565,3.557706 -23.958092,12.636713 -29.850889,24.672553 -6.877721,14.04751 -6.978771,27.51376 -0.31351,41.77554 l 3.344002,7.15523 -2.035008,6.69986 c -1.119254,3.68493 -1.835141,6.89972 -1.590871,7.144 0.244257,0.24427 3.409659,-0.3951 7.034221,-1.42084 l 6.590121,-1.86496 6.415824,3.29177 c 10.51165,5.39324 19.623509,6.89171 30.097299,4.9496 z"
       id="path4772"
       inkscape:connector-curvature="0"
       inkscape:export-xdpi="96"
       inkscape:export-ydpi="96" />
    <path
       style="opacity:1;fill:#000000;fill-opacity:0;stroke-width:0.93263566"
       d="m 99.788273,194.94455 c -3.523829,-0.44675 -8.979719,-1.89857 -12.124191,-3.22626 -3.144482,-1.32769 -6.500114,-2.39572 -7.456978,-2.37341 -0.956854,0.0223 -7.361328,1.38774 -14.232119,3.03428 -6.870791,1.64654 -12.664898,2.82119 -12.875768,2.61032 -0.210847,-0.21086 1.052474,-5.62425 2.807395,-12.02976 1.754951,-6.4055 3.190812,-12.32608 3.190812,-13.15685 0,-0.83075 -1.208244,-4.19156 -2.684955,-7.46847 -3.477722,-7.71723 -4.776103,-14.06662 -4.776103,-23.3563 0,-9.27957 1.929338,-17.01496 6.344094,-25.43565 6.678391,-12.73831 17.685098,-22.056322 31.85256,-26.965645 6.730451,-2.332252 9.417576,-2.765237 17.29488,-2.786801 15.99789,-0.04379 28.88871,5.286039 40.10334,16.581106 7.57907,7.63348 11.87887,15.15214 14.47877,25.31768 9.83395,38.45067 -22.21037,74.29036 -61.921737,69.25576 z m 16.305527,-8.25619 c 13.46978,-2.49764 26.87998,-12.83693 32.87676,-25.34806 10.79177,-22.51488 3.8309,-47.41105 -17.18093,-61.448977 -8.94149,-5.973764 -24.85321,-8.494362 -35.387019,-5.605716 -12.973565,3.557706 -23.958092,12.636713 -29.850889,24.672553 -6.877721,14.04751 -6.978771,27.51376 -0.31351,41.77554 l 3.344002,7.15523 -2.035008,6.69986 c -1.119254,3.68493 -1.835141,6.89972 -1.590871,7.144 0.244257,0.24427 3.409659,-0.3951 7.034221,-1.42084 l 6.590121,-1.86496 6.415824,3.29177 c 10.51165,5.39324 19.623509,6.89171 30.097299,4.9496 z"
       id="path4774"
       inkscape:connector-curvature="0"
       inkscape:export-xdpi="96"
       inkscape:export-ydpi="96" />
    <path
       style="opacity:1;fill:#000000;fill-opacity:0;stroke-width:0.93263566"
       d="m 94.348683,184.88649 c -2.924972,-0.93524 -7.315948,-2.87125 -9.757723,-4.30223 l -4.439546,-2.60179 -6.393144,1.64693 c -3.516219,0.90581 -6.623411,1.41666 -6.904851,1.13521 -0.281427,-0.28144 0.348167,-3.32882 1.399141,-6.77195 l 1.910811,-6.26026 -2.745275,-5.4384 C 48.848811,125.50803 80.980268,84.351127 119.85324,95.130316 c 28.50849,7.905194 41.95964,40.351654 28.08605,67.748334 -4.95583,9.78648 -17.31454,19.49649 -28.68713,22.53893 -6.62093,1.77126 -18.49477,1.51804 -24.903477,-0.53109 z"
       id="path4776"
       inkscape:connector-curvature="0"
       inkscape:export-xdpi="96"
       inkscape:export-ydpi="96" />
    <path
       style="opacity:1;fill:#ffffff;fill-opacity:1;stroke-width:0.93263566"
       d="m 52.906417,193.85058 c 0.29532,-0.76963 1.890781,-6.591 3.545472,-12.93635 l 3.008512,-11.537 -2.468975,-5.50167 c -5.37064,-11.96748 -6.906591,-26.62913 -3.970579,-37.90136 3.430702,-13.17152 13.855962,-27.375933 25.013059,-34.08023 9.628246,-5.785607 17.535191,-7.952399 29.093994,-7.972807 5.64245,-0.01 12.1476,0.516784 14.45585,1.170551 23.66095,6.701416 40.25059,26.992096 41.70966,51.014836 1.2247,20.16366 -7.54251,38.16592 -24.05759,49.39895 -9.49838,6.46049 -16.74219,8.88077 -28.38786,9.48483 -10.28528,0.5335 -16.580267,-0.44369 -24.961289,-3.87484 l -5.38649,-2.2052 -13.133815,3.16983 c -15.046743,3.6315 -15.180383,3.64786 -14.459949,1.77046 z"
       id="path4778"
       inkscape:connector-curvature="0"
       inkscape:export-xdpi="96"
       inkscape:export-ydpi="96" />
    <path
       style="opacity:1;fill:#38bd4a;fill-opacity:1;stroke-width:0.93263566"
       d="m 96.800391,186.15487 c -3.738629,-0.87684 -15.209676,-6.17846 -15.94595,-7.36982 -0.22514,-0.36427 -3.392212,0.15562 -7.037931,1.15532 -3.645759,0.9997 -6.851091,1.59517 -7.123001,1.32327 -0.271907,-0.27191 0.3859,-3.39245 1.461744,-6.93455 l 1.956128,-6.44016 -2.740805,-5.0604 c -11.467184,-21.17216 -4.889053,-48.07325 15.003776,-61.35731 17.071244,-11.399825 39.866758,-9.840753 55.315858,3.78329 17.03827,15.0255 20.62107,41.77711 8.17433,61.03475 -6.2343,9.64575 -15.83423,16.62545 -26.7925,19.47974 -5.98255,1.55826 -16.49616,1.74042 -22.271649,0.38587 z"
       id="path4828"
       inkscape:connector-curvature="0"
       inkscape:export-xdpi="96"
       inkscape:export-ydpi="96" />
    <rect
       style="opacity:1;fill:#ff0000;fill-opacity:1;stroke-width:0.26458332"
       id="rect4847"
       width="3.7095356"
       height="0.74190712"
       x="-42.288704"
       y="69.31694" />
    <path
       style="opacity:0.67000002;fill:#ffffff;fill-opacity:1;stroke-width:0.26458332"
       d="m 131.24839,153.61991 c -2.55726,-2.5502 -6.36576,-4.76272 -10.59642,-5.91198 -5.31916,2.92968 -5.96746,13.27704 -20.16759,0.66944 -15.204996,-18.17313 -6.393284,-9.71469 -2.992315,-18.55367 -4.681513,-19.40112 -14.222719,-16.62185 -18.665632,-7.90163 -5.3072,14.93819 6.668421,23.98748 14.591726,33.52159 l -0.21995,0.21997 c 8.412671,7.29163 17.771141,11.11409 27.944511,11.95 15.30437,-1.14165 15.73219,-8.38376 10.10572,-13.99375 z"
       id="rect4849"
       inkscape:connector-curvature="0"
       inkscape:export-xdpi="96"
       inkscape:export-ydpi="96" />
    <path
       style="opacity:0.67000002;fill:#ffffff;fill-opacity:1;stroke-width:0.74835467"
       d="m 115.04223,166.37123 c -7.54142,-1.63259 -16.884118,-6.60612 -21.617571,-11.50798 -13.066815,-13.53171 -17.080594,-21.53554 -15.048226,-30.00752 1.973151,-8.22509 8.871082,-11.6406 13.500475,-6.68476 2.578575,2.7604 5.45444,10.09292 4.870713,12.41871 -0.23253,0.92649 -1.431144,2.28018 -2.663565,3.0082 -1.335754,0.78906 -2.240778,1.94659 -2.240778,2.86595 0,1.6526 6.915601,10.85423 10.299832,13.70453 3.03137,2.55311 7.33428,4.63619 9.57675,4.63619 1.33742,0 3.08216,-1.09079 5.40025,-3.37616 3.7678,-3.71458 4.27162,-3.75338 9.52162,-0.73332 8.46709,4.87073 9.94608,11.62765 3.18354,14.54431 -4.58877,1.97912 -9.2284,2.33434 -14.78304,1.13185 z"
       id="path4886"
       inkscape:connector-curvature="0"
       inkscape:export-xdpi="96"
       inkscape:export-ydpi="96" />
    <path
       style="opacity:0.67000002;fill:#ffffff;fill-opacity:1;stroke-width:0.74835467"
       d="m 112.02764,165.37365 c -6.02563,-1.9286 -13.077114,-5.89059 -17.412987,-9.78377 -5.072723,-4.55481 -12.323771,-13.75488 -14.479739,-18.37177 -2.020478,-4.32674 -2.352878,-10.98168 -0.741177,-14.83906 1.273914,-3.04893 5.27217,-6.48916 7.541758,-6.48916 2.597875,0 5.64404,2.82088 7.613458,7.05039 2.460945,5.28509 2.338005,8.06627 -0.460627,10.4212 -1.234774,1.03901 -2.245048,2.50917 -2.245048,3.26702 0,2.52832 9.369312,13.44968 13.638992,15.89828 5.30844,3.04432 7.22519,2.92431 11.43083,-0.71567 1.90225,-1.64639 4.02749,-2.99027 4.72274,-2.98641 0.69527,0.004 3.04604,1.02892 5.22393,2.27789 6.1877,3.54853 8.73456,9.28545 5.44415,12.26325 -3.80223,3.44098 -12.96406,4.34821 -20.27628,2.00781 z"
       id="path4888"
       inkscape:connector-curvature="0"
       inkscape:export-xdpi="96"
       inkscape:export-ydpi="96" />
  </g>
</svg>
